<svg xmlns="http://www.w3.org/2000/svg" xmlns:xlink="http://www.w3.org/1999/xlink" viewBox="0 0 860 142.42"><defs><style>.cls-1{fill:url(#linear-gradient);}.cls-2{fill:url(#linear-gradient-2);}.cls-3{fill:url(#linear-gradient-3);}.cls-4{fill:url(#linear-gradient-4);}.cls-5{fill:url(#linear-gradient-5);}.cls-6{fill:url(#linear-gradient-6);}.cls-7{fill:url(#linear-gradient-7);}.cls-8{fill:url(#linear-gradient-8);}.cls-9{fill:url(#linear-gradient-9);}.cls-10{fill:url(#linear-gradient-10);}.cls-11{fill:url(#linear-gradient-11);}</style><linearGradient id="linear-gradient" x1="485.82" y1="141.1" x2="485.82" y2="3.65" gradientUnits="userSpaceOnUse"><stop offset="0" stop-color="#fbb03b"/><stop offset="1" stop-color="#ff0"/></linearGradient><linearGradient id="linear-gradient-2" x1="577.92" y1="141.1" x2="577.92" y2="3.65" xlink:href="#linear-gradient"/><linearGradient id="linear-gradient-3" x1="825.79" y1="141.1" x2="825.79" y2="3.65" xlink:href="#linear-gradient"/><linearGradient id="linear-gradient-4" x1="639.57" y1="141.1" x2="639.57" y2="3.65" xlink:href="#linear-gradient"/><linearGradient id="linear-gradient-5" x1="703.51" y1="141.1" x2="703.51" y2="3.65" xlink:href="#linear-gradient"/><linearGradient id="linear-gradient-6" x1="759.4" y1="141.1" x2="759.4" y2="3.65" xlink:href="#linear-gradient"/><linearGradient id="linear-gradient-7" x1="53" y1="141.1" x2="53" y2="3.65" xlink:href="#linear-gradient"/><linearGradient id="linear-gradient-8" x1="239.87" y1="141.1" x2="239.87" y2="3.65" xlink:href="#linear-gradient"/><linearGradient id="linear-gradient-9" x1="122.4" y1="141.1" x2="122.4" y2="3.65" xlink:href="#linear-gradient"/><linearGradient id="linear-gradient-10" x1="176.16" y1="141.1" x2="176.16" y2="3.65" xlink:href="#linear-gradient"/><linearGradient id="linear-gradient-11" x1="354.5" y1="141.1" x2="354.5" y2="3.65" xlink:href="#linear-gradient"/></defs><title>Asset 2</title><g id="Layer_2" data-name="Layer 2"><g id="Layer_1-2" data-name="Layer 1"><path class="cls-1" d="M537.79,41.77c-8.46-8.6-18-13.93-29.16-16.16A47.9,47.9,0,0,0,487,26.3c-3.8,1-6.62,3.72-8.69,6.93s-1,5.82,2,7.9c7.33,5,15.38,8.65,23.17,12.81a83.07,83.07,0,0,1,20.7,15c12.34,12.61,9.43,41.62-3.42,51.55-15.49,12-32.41,15.77-51.29,14.1-14.24-1.25-26.34-7.16-37.17-16.2-2-1.63-2.65-3.22-2.14-5.76,1.3-6.56,2.35-13.18,3.61-20.41,3.23,2.44,6,4.63,8.88,6.72,10.09,7.36,20.73,13.37,33.58,14.31,7.46.55,14.4-.4,20.94-4.48,9.46-5.89,11.74-16.63,5-25.56-4.44-5.85-10.51-9.63-16.85-13C479.21,66.9,473,64,467.11,60.41c-11.5-7-15.52-15.52-12.86-27.48,1.53-6.85,6.24-11.85,11.46-16.22C475.94,8.15,488,5.15,501,6a90.87,90.87,0,0,1,37.66,11c2.27,1.22,3.23,2.49,2.9,5.22A115.4,115.4,0,0,1,537.79,41.77Z"/><path class="cls-2" d="M567.56,97.33c-4,4.8-4.43,10.16-5.1,15.42C561.17,123,561.17,123.12,551,123c-3.57,0-8.46,1.64-10.32-.82-1.48-2,.58-6.62,1.13-10.07,5.06-31.56,9.92-63.15,15.88-94.56.56-3,1.49-4,4.54-3.84a94,94,0,0,0,12.63,0c3.28-.23,3.57,1,3.19,3.84-2.28,16.53-4.4,33.08-6.73,50.73,4-3.63,7.72-6.3,10.56-9.7,6.63-7.91,14.45-12.89,24.93-10.48a27.24,27.24,0,0,0,5.76,1.06c.55,1.79-.71,2.34-1.36,3.12-7.87,9.52-15.73,19.06-23.72,28.48a5.93,5.93,0,0,0-1.27,6.66C591.72,103,601.35,115.5,613.8,126c2.18,1.83,2.5,3.11.86,5.46-2.35,3.36-5.36,6.14-7.77,9.4-1.6,2.16-2.89,1.85-4.8.48-9.26-6.64-16.66-15-23-24.39C575,110.77,571.38,104.26,567.56,97.33Z"/><path class="cls-3" d="M860,106.88c-.41,3.56-.74,6.75-1.16,9.92-1,7.69-2.75,9.93-8.93,11.56a14.17,14.17,0,0,1-15.62-5.48,22.49,22.49,0,0,1-3.92-16.8c1.19-8.47,2.79-16.88,4.2-25.31.42-2.54.94-5.55-2.14-6.49s-6.46-1.18-8.91,1.78a22.89,22.89,0,0,0-5.45,11.55c-1.66,11.37-3.89,22.66-5.71,34-.39,2.43-1.41,3.27-3.74,3.5-4.92.5-9.82.16-14.74.21-2.46,0-2.17-1.51-2.25-3.08-.39-7.81,1.75-15.31,3-22.89,4.32-25.86,9-51.67,13.25-77.54.66-4,2.13-5.58,6.14-5.13,4.46.5,8.94.84,13.42,1A2.32,2.32,0,0,1,830,20.33c-.18,7.33-3,14.45-4,21.67a99.86,99.86,0,0,0-.9,11.74c-.08,3.07,1,3,3.07,1.58a37.7,37.7,0,0,1,8.65-4.27c10.47-3.49,19.66,2.49,20.79,13.52.58,5.69-.69,11.15-2.07,16.6-1.58,6.25-3.4,12.47-3.78,18.95C851.31,107.24,852.68,108.35,860,106.88Z"/><path class="cls-4" d="M646.06,126.48c-35.28-.28-43.88-29.16-35.4-50.88,7.18-18.39,24.45-29,42.25-26.27,8.15,1.25,15.22,4.8,17.68,12.92C673.27,71,669.77,79,663.16,85c-8.44,7.7-18,12.3-29.94,8.44-2.52-.81-3.81,1.44-2.88,4.66,1.77,6.11,7.34,10.17,14.69,10.52,3.78.18,7.65.39,11.27-.89,2.62-.92,3.06.21,2.73,2.26-.72,4.42-1.59,8.81-2.41,13.21-.29,1.56-1.61,1.91-2.82,2.12C650.78,125.88,647.72,126.25,646.06,126.48ZM640,79.68c3.72-.52,7.78-3,11-6.49,2.41-2.64,1-6.78-2-7.32-4.18-.75-12.52,3.37-14.32,7.07C632.57,77.29,634,79.57,640,79.68Z"/><path class="cls-5" d="M716.48,102.49a36.67,36.67,0,0,1-2.17,11.83c-2.74,7.5-9.78,11.25-18.73,10.2-7.83-.91-11.67-5-13.09-13.54-1.34-8,.61-15.61,2-23.31.8-4.42,1.7-8.82,2.41-13.25.66-4.09-.49-5.65-4.52-5.28-2.84.26-3-.71-2.62-2.93.65-3.88,1.31-7.76,1.65-11.67.22-2.44,1-3.3,3.58-3.21,5.77.2,6-.22,6.93-5.85,1.4-8.44,3-16.85,4.35-25.28.4-2.41,1.17-3.66,4-3.47a97,97,0,0,0,12.64,0c3-.19,3.7,1.11,3.32,3.67-.92,6.24-1.72,12.5-2.81,18.72-2,11.2-2,11.19,9.07,12.77,5.5.78,5.5.78,4.16,6.29a5.15,5.15,0,0,1-.18.82c-1.32,3.06-.15,7.59-2.77,9.28s-6.51,1.28-9.86,1.27c-3.63,0-5.35,1-5.76,5-.7,6.67-3.79,12.94-3.75,19.78a27.14,27.14,0,0,0,.46,5.84c1.44,6.33,4.39,7.35,9.86,3.58Z"/><path class="cls-6" d="M786.24,70.66c-1.57-.89-2.65-1.53-3.74-2.12C771,62.34,761.24,65,754,76.28c-6.7,10.42-4.7,24.8,4.38,31.53,5.18,3.84,10.65,3.8,16.29,1.21,1.64-.75,3.19-1.68,5.23-2.76a41.24,41.24,0,0,1-1.72,14.26c-1.13,3.47-3.68,5.38-7.38,6.06-24.51,4.54-43.87-14-40.4-39,2.07-14.86,8.15-27.55,21.9-35,10.77-5.84,22-5.78,33.2-.69,2.6,1.18,3.94,2.57,3.1,5.78C787.52,61.75,787.06,65.94,786.24,70.66Z"/><path class="cls-7" d="M96.42,108.09c-.92,6.53-.3,12.88-1.85,19-1.36,5.43-3.91,7.21-9.44,7.8-11.26,1.21-22.38,1.22-33.28-2.42-18.32-6.11-31.15-17.88-37.58-36.28-1.34-3.84-3-7.65-3.65-11.61-.74-4.69-3.3-6.37-7.55-6.29-2.7.05-3.52-1.1-2.85-3.58,1.08-4,.22-8.14,1.45-12.1.76-2.45,2.17-4.23,4.76-3.74,2.94.55,3.33-.77,4-3.18C15.89,34.42,26.87,16.61,47.2,7A74.59,74.59,0,0,1,94.47,1.62a24.16,24.16,0,0,1,3.21,1c8.5,3,9.09,4,7.79,12.89-.5,3.46-1.29,6.9-1.59,10.38-.26,3-1.21,3-3.65,1.86-15.09-6.91-30.36-7.06-44.95.9A41.9,41.9,0,0,0,35,53.43c-1.52,4.86-1.08,5.2,4,5.38,12.07.44,24.13.82,36.21.28,6.62-.29,6.63-.14,5.94,6.59-.27,2.66-.9,5.32-.79,8,.15,3.58-1.71,4-4.58,4-12.35.12-24.71.56-37.06.5-3.82,0-4.53,1.67-4.41,4.75.19,4.86,2.55,8.85,5.18,12.68,6.6,9.6,16.51,13.26,27.38,15.55C76.9,113.26,86.22,109.72,96.42,108.09Z"/><path class="cls-8" d="M273.74,103.09c-.36,3.47-.6,6.54-1,9.58-1,7.23-2.79,9.45-9,11s-12.09-.21-15.77-5c-4.68-6.14-4.43-13-3-20.08,1.14-5.63,2.88-11.15,3.34-16.91a36.45,36.45,0,0,0,.15-5c-.18-3-.48-6-4.28-6.77-3.55-.72-5.84.79-7.64,3.78-4.94,8.18-6.23,17.32-7.18,26.55-.56,5.44-1.28,10.84-2.29,16.22-.51,2.71-1.73,3.66-4.4,3.68-4.77,0-9.54.26-14.3.56-2.26.14-2.59-.88-2.32-2.76,5-34.1,9.78-68.25,17.53-101.89.48-2.09,1.32-3,3.66-2.93a112.66,112.66,0,0,0,12.63,0c2.88-.18,3.24,1.1,3,3.45-.68,8.41-2.53,16.63-3.79,24.95-.38,2.49-.58,5-.83,7.52s.54,2.86,2.88,1.89c4.76-2,9.43-4.33,14.74-4.63,10.36-.6,16.35,5.8,14.91,16q-2.33,16.45-4.65,32.89C265.17,102.56,265.79,103.25,273.74,103.09Z"/><path class="cls-9" d="M137.31,100.59a30.31,30.31,0,0,1-2.07,9.4c-3.17,8.06-9.52,11.69-18.79,10.69-8-.87-12.2-5.21-13.6-14.06-1-6.42.67-12.53,2.17-18.64a97.63,97.63,0,0,0,2.86-15.7c.44-5.72-1.2-7.71-6.84-6.93-4,.56-4.4-.87-3.73-4.12.74-3.56,1.26-7.17,1.79-10.77.29-1.94,1-3,3.23-2.65a17.23,17.23,0,0,0,4.62.1c3.05-.31,5.13-1.62,5.66-5.08,1.32-8.58,3-17.1,4.3-25.69.41-2.7,1.3-4,4.16-3.92,4.35.13,8.7.11,13.05,0,2.85-.07,3.51,1,3.05,3.79-1.4,8.43-2.34,16.94-3.88,25.34-.64,3.48.89,4.36,3.64,5.1s5.59.41,8.37.3c2-.08,2.71.45,2.33,2.62-.74,4.28-1.27,8.6-1.76,12.92-.26,2.27-1.48,2.66-3.47,2.43-3.06-.34-6.16-.73-9.21.05-6,1.55-5.75,12.11-7,17.19-.58,2.45-1.45,4.86-1.35,7.42C125.39,102.08,128.16,103.09,137.31,100.59Z"/><path class="cls-10" d="M202.26,66.82l-3.17-2.08c-9.48-6.2-17.67-5.24-25,3.44-6.35,7.56-9.76,16.11-6.23,26.08,4.26,12,14.48,15.85,25.62,9.73l2.93-1.6a35.87,35.87,0,0,1-1.14,13.84,8.21,8.21,0,0,1-6.92,6c-24.73,4.47-41.45-9.62-41.38-34.9,0-17.48,8.21-30.43,23-38.95,10-5.79,20.86-5.77,31.56-1,3,1.34,4.11,3.42,3.67,6.66A101.28,101.28,0,0,1,202.26,66.82Z"/><path class="cls-11" d="M348.88,102c-7.54,10.62-16.9,18.61-29.5,22.14-10.7,3-21.26,3.77-31.22-2.59-.92-.59-2.41-.82-2.48-2.05a38.71,38.71,0,0,1,1.65-14.12c.57-1.75,2-.15,2.78.13,15.93,5.23,31.92-.09,41.06-13.83,1.33-2,4-4.39-.69-5.86-1-.31-.71-1.38-.57-2.21.78-4.84,1.6-9.68,2.3-14.53.21-1.43.77-1.67,2.17-1.71,9.73-.26,12.4-2.19,14.87-11.85,4.44-17.37,15.33-29.69,30.15-38.8a48.73,48.73,0,0,1,34.78-6.6c2.83.49,5.21,2,7.7,3.23,1.94,1,1.54,2.56,1.21,4.35-2.77,14.89-5.29,29.83-8.21,44.68-.7,3.58.3,4.94,3.62,4.92s4.63.95,3.76,4.74a104.64,104.64,0,0,0-1.64,10.9c-.59,4.9-1.76,6.39-6.54,5-3-.9-3.59.45-4.11,2.78-1.91,8.62-4,17.2-5.83,25.83a9.67,9.67,0,0,1-3.83,6.15c-5.95,4.47-11.69,9.21-17.53,13.84-4.36,3.45-4.33,3.41-7.63-.85Q362.91,119.75,350.61,104C350.1,103.32,349.54,102.72,348.88,102ZM385.36,66.8c4.77.11,6.22-.95,7.36-7.66,1.29-7.59,2.4-15.22,3.47-22.84.2-1.39,1.51-3.19-.14-4.21-1.38-.86-3.07.2-4.34,1-11.65,6.88-18.48,17.68-23.77,29.67-.75,1.7-.22,3,2,3.1C374.38,66.06,378.86,66.37,385.36,66.8Zm1.81,20.85h-18c3.86,5.88,7.49,11.33,11,16.84a3.21,3.21,0,0,0,3.14,1.66c2-.17,1.13-1.89,1.35-3C385.75,98.13,385.54,92.87,387.17,87.65Z"/></g></g></svg>